<svg width="543" height="473" viewBox="0 0 543 473" fill="none" xmlns="http://www.w3.org/2000/svg">
<path d="M229.339 249.775C226.13 249.471 221.344 251.66 220.213 247.52C218.383 240.787 224.846 236.734 227.99 230.229C207.799 233.153 192.1 242.414 179.218 256.824C165.873 271.749 161.953 291.479 153.378 308.828C138.639 338.595 118.891 363.06 87.7323 376.717C85.0604 377.896 82.0151 380.859 79.3965 377.718C77.2208 375.11 80.659 372.741 81.4621 370.205C87.1087 352.35 89.3231 334.53 79.9697 317.134C76.4376 310.582 72.3992 304.283 68.6662 297.826C67.3305 295.509 64.6307 293.079 66.6217 290.275C68.986 286.953 71.5081 290.125 73.9478 290.958C93.5285 297.589 113.076 299.664 132.768 291.002C139.448 288.054 142.822 283.939 143.001 276.261C143.515 255.341 148.285 235.261 156.462 215.998C159.688 208.406 157.179 205.255 148.893 204.931C142.252 204.661 136.004 205.733 129.893 208.39C126.35 209.932 122.814 212.188 118.745 211.232C117.622 209.59 118.49 208.425 119.4 207.751C133.926 197.425 142.271 181.857 152.484 168.02C169.678 144.691 190.338 126.917 219.062 119.186C237.932 114.109 257.135 111.215 276.198 107.343C298.972 102.718 321.201 104.615 342.818 112.125C355.364 116.483 367.448 122.246 379.386 128.1C389.198 132.927 389.786 137.027 383.868 146.702C373.178 164.17 361.02 180.323 345.674 194.144C327.765 210.259 306.386 217.25 283.183 220.096C280.372 220.439 277.26 220.105 275.454 222.508C265.753 235.397 251.575 241.883 237.88 249.109C235.026 249.335 232.193 249.549 229.339 249.775ZM284.78 113.731C280.993 114.875 278.102 115.93 275.114 116.642C241.223 124.722 213.264 141.998 190.777 168.893C166.914 197.439 157.136 231.584 149.999 266.844C149.254 270.553 145.854 278.424 150.987 278.957C157.586 279.627 157.484 271.631 158.426 266.132C163.602 235.789 177.513 210.301 201.122 190.343C215.921 177.836 232.505 168.003 250.291 160.597C261.149 156.063 269.688 151.08 270.692 137.946C271.444 128.247 281.093 123.102 284.78 113.731ZM281.308 176.295C284.531 180.562 288.587 176.432 291.913 173.787C307.896 161.099 325.028 160.599 342.155 170.03C349.532 174.078 352.735 171.796 356.245 166.073C360.582 158.979 364.61 151.615 369.57 144.974C373.978 139.074 371.603 136.33 366.371 133.527C355.755 127.811 344.69 123.005 333.323 119.161C318.985 114.321 304.084 115.408 290.894 121.863C276.574 128.868 271.093 160.636 281.287 176.308L281.308 176.295ZM176.587 249.115C178.456 247.565 180.222 245.848 182.227 244.473C197.173 234.034 211.406 222.479 230.702 220.535C246.637 218.928 262.491 216.392 278.329 213.923C286.238 212.695 294.059 210.715 303.067 208.841C290.887 199.827 279.733 192.485 273.919 179.823C271.558 174.711 268.387 172.686 262.154 174.065C244.396 178 229.565 187.735 215.328 197.97C197.558 210.747 184.089 227.532 176.574 249.094L176.587 249.115ZM293.844 189.781C296.367 192.579 299.17 194.801 302.986 195.768C315.225 198.876 326.188 196.435 336.058 188.65C338.499 186.72 341.474 185.096 340.999 181.416C340.511 177.572 337.418 175.815 334.207 174.476C323.449 170.029 312.576 170.083 301.791 174.314C295.945 176.607 291.361 185.924 293.831 189.761L293.844 189.781ZM142.726 310.791C132.684 320.781 123.492 331.545 111.28 338.983C105.761 342.37 100.491 346.209 95.1264 349.847C91.5919 352.246 89.8043 355.617 92.2181 359.316C94.5678 362.91 97.8117 360.458 100.349 358.872C112.977 350.892 124.059 341.097 132.071 328.409C135.69 322.677 142.572 318.885 142.739 310.811L142.726 310.791Z" fill="url(#paint0_linear_22_1795)"/>
<path d="M232.206 254.448C235.06 254.221 237.893 254.008 240.747 253.781C255.266 255.259 266.925 249.686 278.103 240.609C289.402 231.401 302.039 223.905 317.669 224.24C324.199 224.376 326.402 225.902 322.429 232.369C320.152 236.069 318.045 239.808 313.455 244.006C317.149 244.07 319.57 244.685 321.528 244.03C344.881 235.942 366.659 225.194 376.872 200.854C386.69 177.417 397.258 154.499 413.677 134.925C426.504 119.628 443.965 110.379 461.236 101.102C462.876 100.211 465.014 99.4743 466.501 100.864C468.343 102.554 467.722 104.777 466.603 106.845C453.764 130.61 460.137 152.858 472.071 174.599C473.262 176.774 474.717 178.817 475.867 181.018C476.978 183.156 479.341 185.648 477.613 187.802C475.465 190.444 472.453 188.35 470.015 187.285C450.373 178.679 430.502 177.953 410.431 185.667C405.113 187.694 401.788 190.857 401.372 197.213C399.968 219.025 394.069 239.797 385.816 259.97C382.347 268.431 383.932 270.825 393.128 271.743C399.814 272.416 406.119 271.482 412.156 268.611C415.58 266.97 419.031 265.888 423.769 268.074C400.59 286.761 388.168 314.442 364.728 332.282C344.252 347.871 321.424 357.191 295.762 359.876C286.858 360.794 278.04 362.839 269.272 364.681C241.345 370.569 214.661 366.197 188.608 355.539C177.111 350.826 166.626 344.339 156.091 337.913C150.509 334.49 150.437 330.764 153.873 325.576C174.05 295.293 196.813 267.911 232.299 254.505L232.206 254.448ZM254.284 358.829C274.866 354.571 292.412 350.104 308.443 340.87C322.776 332.62 337.04 323.836 347.662 311.274C374.013 280.078 388.301 243.107 395.637 203.294C396.091 200.799 399.578 196.587 394.455 195.789C390.726 195.2 387.525 198.143 386.786 202.424C381.737 230.818 370.419 255.607 349.185 276.151C332.55 292.231 313.91 303.873 292.328 311.565C285.248 314.097 274.92 314.335 272.94 322.457C269.751 335.407 263.636 346.355 254.309 358.871L254.284 358.829ZM245.89 351.06C261.962 341.425 267.946 322.76 262.964 304.234C260.347 294.53 258.114 293.8 249.921 299.721C247.682 301.325 245.249 302.847 242.706 303.861C227.069 310.034 211.858 308.693 197.173 300.756C194.157 299.125 191.014 296.535 188.211 300.501C182.143 309.089 176.24 317.805 170.571 326.666C167.721 331.12 168.625 334.421 174.155 336.726C183.812 340.785 192.874 346.36 202.694 349.887C217.799 355.321 233.293 356.747 245.898 351.026L245.89 351.06ZM371.045 221.697C364.697 223.262 363.373 228.42 360.121 231.28C338.869 250.107 312.985 254.54 286.126 256.636C274.425 257.544 262.755 258.692 251.144 260.264C247.77 260.723 240.622 263.096 246.352 267.32C256.87 275.081 262.644 285.754 269.097 296.268C270.945 299.278 273.344 300.655 276.87 299.555C283.911 297.335 291.166 295.558 297.995 292.806C319.014 284.337 337.287 271.77 351.468 253.943C359.041 244.432 365.736 234.193 371.045 221.697ZM210.01 281.395C207.466 283.157 204.858 284.816 202.378 286.683C198.792 289.374 199.443 291.794 203.201 293.603C217.649 300.592 230.673 303.995 245.577 292.315C252.935 286.533 252.689 283.46 244.707 279.035C232.47 272.272 221.091 273.097 210.01 281.395ZM398.091 169.125C401.85 168.17 403.547 165.402 405.65 163.249C418.598 149.977 431.833 137.077 448.817 128.927C452.789 127.007 456.607 124.693 453.829 119.98C451.001 115.183 447.202 118.982 444.347 120.706C424.797 132.647 409.529 148.752 398.112 169.112L398.091 169.125Z" fill="url(#paint1_linear_22_1795)"/>
<path d="M326.388 154.844C323.541 149.829 326.136 140.178 330.994 137.685C336.117 135.059 345.232 137.954 347.975 143.033C351.233 149.092 349.06 156.757 343.215 159.941C337.371 163.125 329.784 160.846 326.388 154.844Z" fill="#2A1A65"/>
<path d="M205.655 328.314C199.849 331.186 194.638 328.744 190.864 322.83C186.941 316.719 188.463 311.555 194.664 307.922C200.657 304.416 206.396 303.685 210.76 310.561C214.333 316.196 212.428 324.157 205.676 328.301L205.655 328.314Z" fill="#2A1A65"/>
<defs>
<linearGradient id="paint0_linear_22_1795" x1="372.975" y1="111.231" x2="40.8878" y2="315.05" gradientUnits="userSpaceOnUse">
<stop stop-color="#2A1A65"/>
<stop offset="1" stop-color="#533FA1"/>
</linearGradient>
<linearGradient id="paint1_linear_22_1795" x1="503.584" y1="160.987" x2="171.109" y2="365.045" gradientUnits="userSpaceOnUse">
<stop stop-color="#4D3A98"/>
<stop offset="1" stop-color="#2C1C67"/>
</linearGradient>
</defs>
</svg>
